<svg id="Layer_35" enable-background="new 0 0 64 64" height="512" viewBox="0 0 64 64" width="512" xmlns="http://www.w3.org/2000/svg">
    <circle cx="9" cy="20" r="1" fill="#3639AE"/>
    <path d="m26 24c0-1.383-.945-2.539-2.22-2.884-.444 1.102-1.521 1.884-2.78 1.884-.853 0-1.619-.361-2.166-.935l-3.834 3.245-3.834-3.245c-.547.574-1.313.935-2.166.935-1.259 0-2.336-.782-2.78-1.884-1.275.345-2.22 1.501-2.22 2.884 0 3.86 3.14 7 7 7h8c3.86 0 7-3.14 7-7z" fill="#3639AE"/>
    <path d="m10.192 5.909 2.957 6.899 3.031-5.052 2.043 5.107 1.242-1.863h7.398c.089-.417.137-.845.137-1.28v-.649c0-3.347-2.724-6.071-6.071-6.071-1.622 0-3.146.631-4.293 1.778l-1.636 1.636-1.636-1.636c-1.147-1.147-2.671-1.778-4.293-1.778-3.347 0-6.071 2.724-6.071 6.071v.649c0 .094.011.187.015.28h4.45z" fill="#3639AE"/>
    <path d="m5.149 14.354 3.211 2.718c.207-.045.42-.072.64-.072 1.654 0 3 1.346 3 3 0 .048-.012.092-.014.14l3.014 2.55 3.014-2.55c-.002-.048-.014-.092-.014-.14 0-1.654 1.346-3 3-3 .22 0 .433.027.64.072l3.211-2.717c.466-.394.858-.854 1.18-1.355h-5.496l-2.758 4.136-1.957-4.893-2.969 4.948-3.043-7.101-1.273 1.91h-5.083c.365.899.937 1.711 1.697 2.354z" fill="#3639AE"/>
    <circle cx="21" cy="20" r="1" fill="#3639AE"/>
    <circle cx="51" cy="12" r="5" fill="#3639AE"/>
    <path d="m44 39v-6h-3v3c0 1.654 1.346 3 3 3z" fill="#3639AE"/>
    <circle cx="48" cy="32" r="2" fill="#3639AE"/>
    <path d="m51 19c-5.514 0-10 4.486-10 10v2h3v-5h2v2.556c.591-.344 1.268-.556 2-.556 2.206 0 4 1.794 4 4s-1.794 4-4 4c-.732 0-1.409-.212-2-.556v23.556c0 1.103.897 2 2 2s2-.897 2-2v-21h2v21c0 1.103.897 2 2 2s2-.897 2-2v-33h2v13c1.654 0 3-1.346 3-3v-7c0-5.514-4.486-10-10-10z" fill="#3639AE"/>
    <path d="m35 36v22c0 1.654-1.346 3-3 3s-3-1.346-3-3v-10c0-2.757-2.243-5-5-5h-5c-1.654 0-3-1.346-3-3v-4h1v-3h-4v3h1v4c0 2.757 2.243 5 5 5h5c1.654 0 3 1.346 3 3v10c0 2.757 2.243 5 5 5s5-2.243 5-5v-22c0-1.654 1.346-3 3-3h1v-2h-1c-2.757 0-5 2.243-5 5z" fill="#3639AE"/>
</svg>
