<svg id="Layer_5" enable-background="new 0 0 64 64" height="512" viewBox="0 0 64 64" width="512" xmlns="http://www.w3.org/2000/svg"><path d="m60 31h-15.69c1.62-1.076 2.69-2.914 2.69-5 0-1.317-.431-2.532-1.153-3.522.753-2.074 1.153-4.247 1.153-6.478v-2.486c0-6.9-5.614-12.514-12.514-12.514-2.298 0-4.529.625-6.486 1.812-1.957-1.187-4.188-1.812-6.486-1.812-6.9 0-12.514 5.614-12.514 12.514v.221l-1-1.75-4.348 7.608c-.426.746-.652 1.596-.652 2.456 0 2.73 2.221 4.951 5.049 4.951.351 0 .693-.039 1.024-.109.399 2.666 2.553 4.763 5.248 5.068 1.004 4.645 4.32 8.428 8.679 10.102v.939 1 .165l-8.388 1.526c-7.887 1.434-13.612 8.293-13.612 16.309v1h54v-1c0-8.016-5.725-14.875-13.612-16.309l-8.388-1.526v-.165-1-.936c2.051-.784 3.898-2.051 5.4-3.725.049.022.104.031.152.055.792.397 1.679.606 2.566.606h18.882c1.654 0 3-1.346 3-3v-2c0-1.654-1.346-3-3-3zm-18.051-1.126c.018-.292.051-.582.051-.874v-6.858c1.72.447 3 2 3 3.858 0 1.877-1.304 3.445-3.051 3.874zm-30.949-13.874v-2.486c0-5.798 4.716-10.514 10.514-10.514 2.083 0 4.1.61 5.832 1.766l.654.436.654-.436c1.733-1.156 3.75-1.766 5.832-1.766 5.798 0 10.514 4.716 10.514 10.514v2.486c0 1.701-.255 3.364-.745 4.967-.672-.436-1.435-.738-2.255-.877v-1.59l-4-3v-2.5c0-1.103-.897-2-2-2h-16c-1.103 0-2 .897-2 2v2.5l-4 3v1.585c-.44.073-.862.211-1.272.379-.102-.3-.222-.595-.381-.871l-1.288-2.253c-.034-.444-.059-.891-.059-1.34zm25.001 3h-16.001v-6h16zm-28.05 6c-1.627 0-2.951-1.324-2.951-2.951 0-.513.134-1.02.389-1.464l2.611-4.569 2.611 4.569c.255.445.389.951.389 1.464 0 1.627-1.324 2.951-3.049 2.951zm3.049 1.001c1.071-.802 1.794-2.022 1.946-3.421.33-.199.683-.347 1.054-.442v6.862c0 .294.026.582.044.872-1.743-.432-3.043-1.997-3.044-3.871zm5 2.999v-9.5l2-1.5v1c0 1.103.897 2 2 2h16c1.103 0 2-.897 2-2v-1l2 1.5v9.5c0 .727-.085 1.448-.214 2.159-.426.102-.841.251-1.233.447-.516.258-1.095.394-1.671.394h-6.882c-1.654 0-3 1.346-3 3s1.346 3 3 3h5.911c-2.174 1.916-4.958 3-7.911 3-6.617 0-12-5.383-12-12zm14 7c-.551 0-1-.448-1-1s.449-1 1-1h1v2zm-6.516 10.111c.636 1.353 1.854 2.371 3.335 2.733-.49 1.242-2.007 2.156-3.819 2.156-2.206 0-4-1.346-4-3 0-.385.11-.765.322-1.133zm29.482 14.889h-49.932c.45-6.613 5.331-12.141 11.936-13.342l2.099-.382c-.044.24-.069.482-.069.724 0 2.757 2.691 5 6 5 2.086 0 3.924-.893 5-2.242 1.076 1.349 2.914 2.242 5 2.242 3.309 0 6-2.243 6-5 0-.242-.025-.484-.068-.723l2.099.382c6.605 1.2 11.485 6.728 11.935 13.341zm-16.288-14.133c.212.368.322.748.322 1.133 0 1.654-1.794 3-4 3-1.812 0-3.329-.914-3.819-2.156 1.482-.362 2.7-1.38 3.335-2.733zm-5.678-3.867v1c0 1.654-1.346 3-3 3s-3-1.346-3-3v-1-.332c.968.212 1.97.332 3 .332 1.021 0 2.025-.116 3-.328zm8.447-6.395c-.791-.396-1.678-.605-2.565-.605h-3.882v-2h3.882c.885 0 1.772-.209 2.565-.605.516-.258 1.095-.395 1.671-.395h13.882v4h-13.882c-.577 0-1.155-.137-1.671-.395zm21.553-.605c0 .552-.449 1-1 1h-3v-4h3c.551 0 1 .448 1 1z" fill="#3639AE" /><path d="m33 21.394h2v7.211h-2z" transform="matrix(.555 -.832 .832 .555 -5.661 39.422)" fill="#3639AE" /><path d="m18.394 24h7.211v2h-7.211z" transform="matrix(.832 -.555 .555 .832 -10.173 16.402)" fill="#3639AE" /></svg>