<svg height="512" viewBox="0 0 512 512" width="512" xmlns="http://www.w3.org/2000/svg"><g id="outline"><path d="m106.651 162.277h16v16h-16z" transform="matrix(.822 -.57 .57 .822 -76.57 95.62)" fill="#3639AE" /><path d="m252.459 372.695h16v16h-16z" transform="matrix(.822 -.57 .57 .822 -170.461 216.149)" fill="#3639AE" /><path d="m360 72h-16c-74.99 0-136 61.01-136 136v121.449l-14.853 10.292a16 16 0 0 1 -22.264-4.039l-59.235-85.482a16 16 0 0 1 4.039-22.263l46.026-31.893a16.019 16.019 0 0 0 4.038-22.265l-50.122-72.331a16 16 0 0 0 -22.264-4.037l-46.029 31.9c-.037.026-.061.054-.095.08a8.084 8.084 0 0 0 -1.106.941 107.8 107.8 0 0 0 -10.989 135.877l93.881 135.483a107.716 107.716 0 0 0 131.091 37.429c.043-.019.061-.04.1-.059a8.015 8.015 0 0 0 1.281-.708l46.028-31.9a16.018 16.018 0 0 0 4.038-22.265l-27.865-40.209h76.3a136 136 0 0 0 136-136c0-74.99-61.01-136-136-136zm-283.821 56.8 18.226 26.3 13.151-9.113-18.226-26.3 13.151-9.113 50.119 72.336-39.45 27.339-25.062-36.166-25.061-36.166zm66 263.795-93.879-135.479a91.805 91.805 0 0 1 2.892-108.192l49.38 71.262a32.036 32.036 0 0 0 -2.07 39.147l59.234 85.482a32.039 32.039 0 0 0 37.382 11.81l49.382 71.262a91.808 91.808 0 0 1 -102.322-35.287zm116.78 28.068-50.122-72.332 13.152-9.113 18.226 26.3 13.15-9.113-18.225-26.3 13.15-9.105 50.121 72.332zm185.9-127.815a119.247 119.247 0 0 1 -84.859 35.152h-87.391l-11.169-16.118a16.016 16.016 0 0 0 -22.263-4.036l-15.177 10.516v-110.362a120.136 120.136 0 0 1 120-120h16a120 120 0 0 1 84.854 204.852z" fill="#3639AE" /><path d="m416 184h-32v-32a8 8 0 0 0 -8-8h-48a8 8 0 0 0 -8 8v32h-32a8 8 0 0 0 -8 8v48a8 8 0 0 0 8 8h32v32a8 8 0 0 0 8 8h48a8 8 0 0 0 8-8v-32h32a8 8 0 0 0 8-8v-48a8 8 0 0 0 -8-8zm-8 48h-32a8 8 0 0 0 -8 8v32h-32v-32a8 8 0 0 0 -8-8h-32v-32h32a8 8 0 0 0 8-8v-32h32v32a8 8 0 0 0 8 8h32z" fill="#3639AE" /><path d="m328 360h16v16h-16z" fill="#3639AE" /><path d="m360 360h32v16h-32z" fill="#3639AE" /></g></svg>