<svg height="624pt" viewBox="-19 -35 624.00103 624" width="624pt" xmlns="http://www.w3.org/2000/svg"><path d="m113.042969 391.878906c9.253906 7.542969 20.023437 13.007813 31.578125 16.03125-16.734375 18.804688-17.367188 46.972656-1.480469 66.5l48.242187 59.183594c17.863282 21.875 50.066407 25.160156 71.972657 7.339844l42.171875-34.378906c21.617187 2.476562 43.3125-3.875 60.1875-17.609376l133.292968-108.675781c7.910157-6.441406 11.996094-16.460937 10.84375-26.597656-1.15625-10.132813-7.390624-18.980469-16.546874-23.476563l11.773437-9.597656c7.984375-6.515625 12.058594-16.679687 10.789063-26.90625-1.269532-10.226562-7.699219-19.082031-17.035157-23.453125 9.863281-11.863281 9.101563-29.269531-1.753906-40.230469-10.863281-10.953124-28.265625-11.871093-40.214844-2.113281l-3.554687 2.898438c-2.558594-9.875-9.972656-17.757813-19.667969-20.929688-9.6875-3.171875-20.328125-1.191406-28.230469 5.257813l-44.800781 36.53125c.667969-13.011719-3.542969-25.804688-11.800781-35.875-6.171875-7.617188-17.34375-8.796875-24.972656-2.644532l-10.953126 8.824219h-4.007812c8.828125-9.5 13.675781-22.019531 13.554688-34.988281-.015626-4.679688-1.898438-9.152344-5.230469-12.4375-3.332031-3.277344-7.839844-5.09375-12.515625-5.035156h-150.046875c-25.976563.054687-49.996094 13.828125-63.160157 36.222656h-40.742187c-28.210937 0-50.734375 23.488281-50.734375 51.695312v76.347657c-.0585938 13.457031 5.273438 26.375 14.804688 35.882812 9.535156 9.5 22.46875 14.792969 35.929687 14.695313h54.429687c2.457032 3.746094 5.085938 5.277344 7.878907 7.539062zm221.839843-165.089844c.050782-.042968.121094-.070312.195313-.058593.066406.003906.128906.039062.175781.09375 12.308594 15.09375 10.050782 37.308593-5.046875 49.621093l-39.074219 31.851563c-2.441406 1.964844-3.644531 5.089844-3.148437 8.1875s2.609375 5.691406 5.546875 6.800781c2.929688 1.109375 6.234375.5625 8.65625-1.4375l39.070312-31.851562.011719-.011719 75.1875-61.300781c3.445313-2.859375 8.164063-3.65625 12.355469-2.074219 4.191406 1.574219 7.210938 5.28125 7.914062 9.707031.703126 4.425782-1.023437 8.886719-4.519531 11.6875l-97.792969 79.730469c-2.464843 1.960937-3.683593 5.09375-3.195312 8.207031.492188 3.109375 2.617188 5.71875 5.566406 6.820313 2.945313 1.109375 6.265625.542969 8.679688-1.476563l97.789062-79.730468 24.65625-20.097657c5.335938-4.277343 13.125-3.449219 17.445313 1.851563 4.320312 5.300781 3.5625 13.09375-1.695313 17.464844l-16.414062 13.382812-.019532.015625-24.65625 20.105469-.019531.019531-81.335937 66.308594c-2.445313 1.96875-3.648438 5.089843-3.152344 8.1875.492188 3.097656 2.609375 5.695312 5.542969 6.800781 2.9375 1.109375 6.242187.5625 8.660156-1.4375l81.347656-66.324219 24.660157-20.105469c5.335937-4.347656 13.1875-3.554687 17.535156 1.785157 4.347656 5.332031 3.550781 13.183593-1.785156 17.53125l-28.757813 23.453125c-.488281.394531-.929687.84375-1.320313 1.332031-.96875.621094-1.902343 1.292969-2.789062 2.015625l-56.703125 46.234375c-2.476563 1.957031-3.707031 5.09375-3.21875 8.214844.488281 3.117187 2.621094 5.730469 5.578125 6.835937 2.957031 1.105469 6.277344.53125 8.6875-1.5l56.710938-46.230468c3.445312-2.859376 8.164062-3.65625 12.355468-2.074219 4.191406 1.578125 7.21875 5.285156 7.917969 9.710937.703125 4.417969-1.023437 8.882813-4.523437 11.679688l-133.296876 108.679687c-13.769531 11.214844-31.621093 16.121094-49.183593 13.519531-2.761719-.804687-5.742188-.199218-7.972657 1.621094l-45.199218 36.847656c-14.417969 11.730469-35.613282 9.574219-47.371094-4.820312l-48.242188-59.171875c-11.746093-14.40625-9.589843-35.617187 4.816407-47.367187l27.445312-22.375c.148438-.125.292969-.242188.429688-.375l8.0625-7.496094c2.320312-2.160156 3.292969-5.410156 2.535156-8.492188-5.007813-20.597656 2.222656-42.246094 18.609375-55.6875zm-284.148437 140.0625c-8.824219.109376-17.320313-3.34375-23.570313-9.566406-6.257812-6.226562-9.738281-14.703125-9.675781-23.523437v-76.347657c0-18.5625 14.675781-34.207031 33.246094-34.207031h33.761719c-1.441406 5.902344-2.183594 11.953125-2.21875 18.035157-.0625 23.414062 9.226562 45.886718 25.808594 62.429687l4.324218 4.390625c3.394532 3.414062 8.917969 3.429688 12.332032.035156 3.417968-3.402344 3.429687-8.925781.03125-12.335937l-4.324219-4.324219c-13.28125-13.144531-20.730469-31.070312-20.683594-49.753906.050781-30.257813 24.617187-54.75 54.871094-54.699219h150.042969c.140624 0 .257812-.160156.257812-.015625-.019531 9.320312-3.75 18.25-10.367188 24.816406-6.617187 6.5625-15.570312 10.222656-24.894531 10.171875h-60.953125c-4.847656.050781-8.75 3.996094-8.742187 8.847657-.015625 16.835937-13.648438 30.496093-30.488281 30.539062-4.832032.015625-8.746094 3.9375-8.746094 8.765625.003906 2.316406.933594 4.523437 2.570312 6.148437 1.640625 1.625 3.867188 2.527344 6.175782 2.507813 23.15625 0 43.003906-16.542969 47.171874-39.320313h74.769532l-30.644532 25.011719c-.320312-.03125-.648437-.039062-.96875-.03125h-19.292968c-4.640625.03125-8.460938 3.652344-8.734375 8.285157-.269531 4.632812 3.097656 8.675781 7.703125 9.253906l-31.949219 26.0625c-20.148437 16.535156-29.914063 42.582031-25.605469 68.285156l-4.25 3.957031-15.621094 12.738281c-28.308593-1-54.160156-22.121093-60.644531-49.925781-1.101562-4.707031-5.800781-7.625-10.503906-6.53125-2.238281.460938-4.191406 1.804688-5.421875 3.730469-1.230469 1.921875-1.628906 4.261719-1.109375 6.484375 1.648437 7.039063 4.304687 13.800781 7.886719 20.085937zm0 0" fill="#3639AE" /><path d="m435.21875 119.089844-33.710938-53.433594c-1.601562-2.535156-4.390624-4.078125-7.390624-4.078125-3.007813 0-5.796876 1.542969-7.398438 4.078125l-33.710938 53.433594c-.175781.273437-.332031.554687-.472656.847656-9.433594 19.429688-4.148437 42.800781 12.726563 56.28125 16.871093 13.484375 40.832031 13.484375 57.703125 0 16.875-13.480469 22.160156-36.851562 12.726562-56.28125-.140625-.292969-.296875-.574219-.472656-.847656zm-20.789062 41.347656c-11.230469 11.195312-29.402344 11.195312-40.632813 0l-6.179687 6.179688 6.179687-6.179688c-8.527344-8.546875-10.816406-21.503906-5.722656-32.449219l26.035156-41.273437 26.046875 41.273437c5.089844 10.945313 2.800781 23.898438-5.726562 32.4375zm0 0" fill="#3639AE" /><path d="m497.160156 26.371094c-3 0-5.792968 1.539062-7.390625 4.078125l-22.476562 35.621093c-.167969.273438-.332031.558594-.472657.851563-6.265624 12.929687-3.660156 28.40625 6.496094 38.570313 11.644532 11.640624 29.992188 13.171874 43.40625 3.625 13.410156-9.550782 17.96875-27.382813 10.78125-42.195313-.140625-.292969-.296875-.578125-.472656-.851563l-22.472656-35.621093c-1.601563-2.539063-4.394532-4.078125-7.398438-4.078125zm11.484375 66.75c-6.339843 6.34375-16.621093 6.34375-22.960937 0-4.78125-4.777344-6.097656-12.015625-3.3125-18.175782l14.789062-23.441406 14.792969 23.441406c2.785156 6.160157 1.46875 13.394532-3.308594 18.175782zm0 0" fill="#3639AE" /><path d="m313.449219 2.96875c-1.601563-2.539062-4.394531-4.078125-7.394531-4.078125-3.003907 0-5.796876 1.539063-7.394532 4.078125l-22.476562 35.621094c-.167969.273437-.332032.558594-.472656.851562-6.265626 12.929688-3.660157 28.40625 6.496093 38.570313 11.644531 11.640625 29.992188 13.171875 43.402344 3.625 13.414063-9.550781 17.972656-27.382813 10.785156-42.195313-.140625-.292968-.296875-.578125-.472656-.851562zm4.085937 62.671875c-6.34375 6.34375-16.621094 6.34375-22.960937 0-4.78125-4.773437-6.097657-12.015625-3.3125-18.171875l14.789062-23.445312 14.792969 23.445312c2.785156 6.15625 1.46875 13.390625-3.308594 18.171875zm0 0" fill="#3639AE" /><path d="m577.042969 193.082031c-15.691407-1.425781-28.128907-13.859375-29.554688-29.558593-.410156-4.503907-4.183593-7.953126-8.707031-7.953126s-8.300781 3.449219-8.707031 7.953126c-1.421875 15.699218-13.859375 28.132812-29.558594 29.558593-4.503906.40625-7.953125 4.183594-7.953125 8.710938 0 4.523437 3.449219 8.300781 7.953125 8.703125 15.699219 1.425781 28.136719 13.863281 29.558594 29.558594.40625 4.503906 4.183593 7.953124 8.707031 7.953124s8.296875-3.449218 8.707031-7.953124c1.425781-15.695313 13.863281-28.132813 29.554688-29.558594 4.507812-.402344 7.957031-4.179688 7.957031-8.703125 0-4.527344-3.449219-8.304688-7.957031-8.710938zm-38.261719 21.382813c-3.429688-4.953125-7.726562-9.246094-12.671875-12.675782 4.945313-3.433593 9.242187-7.726562 12.671875-12.679687 3.433594 4.953125 7.722656 9.246094 12.675781 12.679687-4.949219 3.429688-9.242187 7.722657-12.675781 12.675782zm0 0" fill="#3639AE" /><path d="m539.570312 440.402344c-15.691406-1.425782-28.128906-13.863282-29.554687-29.558594-.410156-4.503906-4.183594-7.953125-8.707031-7.953125-4.523438 0-8.300782 3.449219-8.707032 7.953125-1.421874 15.695312-13.859374 28.132812-29.558593 29.558594-4.5.402344-7.953125 4.179687-7.953125 8.707031 0 4.523437 3.453125 8.300781 7.953125 8.707031 15.699219 1.421875 28.136719 13.859375 29.558593 29.558594.40625 4.503906 4.183594 7.953125 8.707032 7.953125 4.523437 0 8.296875-3.449219 8.707031-7.953125 1.425781-15.699219 13.863281-28.136719 29.554687-29.558594 4.507813-.40625 7.957032-4.183594 7.957032-8.707031 0-4.527344-3.449219-8.304687-7.957032-8.707031zm-38.261718 21.378906c-3.429688-4.953125-7.726563-9.246094-12.671875-12.675781 4.945312-3.429688 9.242187-7.722657 12.671875-12.675781 3.433594 4.953124 7.722656 9.246093 12.675781 12.675781-4.949219 3.429687-9.242187 7.722656-12.675781 12.675781zm0 0" fill="#3639AE" /><path d="m211.484375 59.851562c-.410156-4.503906-4.183594-7.953124-8.707031-7.953124-4.523438 0-8.300782 3.449218-8.707032 7.953124-1.421874 15.695313-13.859374 28.132813-29.558593 29.558594-4.5.402344-7.953125 4.179688-7.953125 8.707032 0 4.523437 3.453125 8.300781 7.953125 8.707031 15.699219 1.421875 28.136719 13.859375 29.558593 29.558593.40625 4.503907 4.183594 7.953126 8.707032 7.953126 4.523437 0 8.296875-3.449219 8.707031-7.953126 1.425781-15.699218 13.863281-28.136718 29.554687-29.558593 4.507813-.40625 7.957032-4.183594 7.957032-8.707031 0-4.527344-3.449219-8.304688-7.957032-8.707032-15.691406-1.425781-28.128906-13.863281-29.554687-29.558594zm-8.707031 50.9375c-3.429688-4.953124-7.726563-9.246093-12.671875-12.675781 4.945312-3.429687 9.242187-7.722656 12.671875-12.675781 3.433594 4.953125 7.722656 9.246094 12.675781 12.675781-4.949219 3.429688-9.242187 7.722657-12.675781 12.675781zm0 0" fill="#3639AE" /></svg>