<svg id="Capa_1" background="#f00" enable-background="new 0 0 512 512" height="512" viewBox="0 0 512 512" width="512" xmlns="http://www.w3.org/2000/svg"><g><path d="m512 84.96c0-22.704-8.842-44.05-24.896-60.104-33.142-33.143-87.066-33.143-120.208 0l-270.181 270.221c-22.139 22.139-34.22 52.145-33.738 83.233l-48.356 48.357c-19.495 19.495-19.495 51.216 0 70.711 9.748 9.748 22.552 14.622 35.355 14.622 12.804 0 25.608-4.874 35.355-14.621l48.357-48.356c31.067.445 61.097-11.599 83.234-33.737l270.181-270.221c16.055-16.055 24.897-37.4 24.897-60.105zm-316.291 309.112c-17.615 17.615-41.962 26.627-66.8 24.711-4.367-.333-8.661 1.254-11.757 4.35l-53.034 53.033c-7.798 7.797-20.486 7.797-28.284 0-7.798-7.798-7.798-20.487 0-28.285l53.033-53.033c3.097-3.097 4.685-7.391 4.35-11.757-1.232-16.016 2.082-31.826 9.31-45.761l.716.716c2.929 2.93 6.768 4.394 10.606 4.394s7.678-1.465 10.607-4.394c5.857-5.858 5.857-15.355 0-21.213l-3.535-3.535 21.213-21.213 3.535 3.535c2.929 2.93 6.768 4.394 10.607 4.394 3.838 0 7.678-1.465 10.606-4.394 5.858-5.857 5.858-15.354 0-21.213l-3.536-3.536 21.213-21.213 3.536 3.536c2.929 2.929 6.768 4.393 10.606 4.393s7.678-1.465 10.607-4.394c5.858-5.858 5.857-15.355 0-21.214l-3.535-3.535 21.213-21.213 3.536 3.536c2.929 2.93 6.768 4.394 10.607 4.394 3.838 0 7.678-1.465 10.606-4.394 5.858-5.857 5.858-15.354 0-21.213l-3.536-3.536 21.213-21.213 3.535 3.535c2.929 2.93 6.768 4.394 10.607 4.394 3.838 0 7.678-1.465 10.606-4.394 5.858-5.857 5.858-15.354 0-21.213l-3.536-3.536 23.213-23.213 77.782 77.781zm270.182-270.221-53.033 53.033-77.782-77.781 53.033-53.033c21.445-21.443 56.338-21.443 77.782 0 10.388 10.388 16.109 24.199 16.109 38.89s-5.721 28.503-16.109 38.891z" fill="#3639AE"/><path d="m138.598 352.188c-5.858 5.857-5.858 15.355 0 21.213 2.929 2.93 6.767 4.394 10.606 4.394 3.838 0 7.678-1.465 10.606-4.394l169.706-169.705c5.858-5.857 5.858-15.355 0-21.213-5.857-5.858-15.355-5.858-21.213 0z" fill="#3639AE"/></g></svg>